<?xml version="1.0" standalone="no"?>
<svg viewBox="0 0 200 200" xmlns="http://www.w3.org/2000/svg">
  <path fill="#14CBE3" d="M36.9,-62.1C48.8,-57.1,59.9,-49.1,65.3,-38.2C70.8,-27.3,70.5,-13.7,70.3,-0.1C70.1,13.4,69.9,26.8,63.4,35.9C57,45.1,44.3,49.9,32.7,57.5C21.1,65.2,10.5,75.6,-3,80.8C-16.5,86,-33.1,86,-45.1,78.6C-57.2,71.2,-64.7,56.4,-71.5,42.1C-78.4,27.8,-84.6,13.9,-82.5,1.2C-80.5,-11.5,-70.1,-23,-62.2,-35.5C-54.2,-47.9,-48.6,-61.2,-38.7,-67.3C-28.7,-73.3,-14.4,-71.9,-0.9,-70.4C12.5,-68.8,25.1,-67,36.9,-62.1Z" transform="translate(100 100)" />
</svg>
